<?xml version="1.0" encoding="UTF-8" standalone="no"?>
<svg width="434px" height="434px" viewBox="0 0 434 434" version="1.1" xmlns="http://www.w3.org/2000/svg" xmlns:xlink="http://www.w3.org/1999/xlink" xmlns:sketch="http://www.bohemiancoding.com/sketch/ns">
    <title>Slice 1</title>
    <description>Created with Sketch (http://www.bohemiancoding.com/sketch)</description>
    <defs>
        <path d="M197.357015,161.912697 C195.642064,161.007059 197.475725,158.865649 197.475725,158.865649 C202.837842,157.371269 210.295261,156.028843 219.829203,156.000404 C229.023559,155.97312 236.478011,157.332208 241.952651,158.868332 C244.043698,159.64405 242.426746,162.112129 242.426746,162.112129 C235.319388,164.443438 227.710982,166 220.064779,166 C212.357302,166 204.609864,164.354242 197.357015,161.912697 Z M185.384175,164.515873 C186.159512,163.056575 187.256664,163 188.027332,163 C189.364119,163 189.990386,163.278368 191.555748,163.964094 C200.386304,167.832427 210.231488,170.700389 220.012729,170.700389 C230.011196,170.700389 239.945454,167.820435 248.793008,163.939841 C250.229153,163.309939 250.63818,163.204015 251.863234,163.204015 C252.670898,163.204015 253.854087,163.220649 254.730242,164.848851 C259.644417,173.981105 270.733302,202.686683 231.436997,224.806983 C225.01015,228.424712 219.848161,233 219.848161,233 C219.848161,233 214.251164,228.103819 207.951658,224.602158 C169.083466,202.996719 180.553816,173.607321 185.384175,164.515873 Z M185.384175,164.515873" id="path-1" stroke="none" fill-rule="evenodd" transform="translate(220.000000, 194.500000) rotate(-237.000000) translate(-220.000000, -194.500000) "></path>
        <mask id="mask-2" fill="white">
            <use xlink:href="#path-1"></use>
        </mask>
    </defs>
    <g id="Page 1" stroke="none" stroke-width="1" fill="none" fill-rule="evenodd">
        <path d="M217,434 C336.845797,434 434,336.845797 434,217 C434,97.1542034 336.845797,0 217,0 C97.1542034,0 0,97.1542034 0,217 C0,336.845797 97.1542034,434 217,434 Z M217,434" id="Oval 1" fill="#373633"></path>
        <g id="Group" transform="translate(82.000000, 65.000000)">
            <path d="M56.0018736,273 C52.6871303,273 50,275.686537 50,278.995183 L50,300.004817 C50,303.315865 52.6800274,306 56.0018736,306 L104.998126,306 C108.31287,306 111,303.313463 111,300.004817 L111,278.995183 C111,275.684135 108.319973,273 104.998126,273 L56.0018736,273 Z M56.0018736,273" id="Rectangle 4" fill="#3C965A"></path>
            <path d="M75.0106772,0 C72.8030384,0 71.0133936,1.78430409 71.0133936,3.9998468 L71.0133936,50.974032 L67,63.3381163 L67,297 L92,297 L92,64.2378741 L85.5713589,50.974032 L85.5713589,3.9998468 C85.5713589,1.79079241 83.7862666,0 81.5740753,0 L75.0106772,0 Z M75.0106772,0" id="Rectangle 5" fill="#3C965A"></path>
            <path d="M12.6225234,48.0413933 L0.932281045,64.7265912 C-0.334365525,66.534445 0.428691444,68 2.6306117,68 L10.6629775,68 L259.698052,68 L265.457254,68 C268.767509,68 269.316733,66.3836096 266.66336,64.3740756 L245.097821,48.0413933 C244.301069,47.4662476 243.23385,47 242.703029,47 L14.312447,47 C13.7865923,47 13.0216115,47.4780709 12.6225234,48.0413933 Z M12.6225234,48.0413933" id="Rectangle 6" fill="#3C965A"></path>
            <use id="Line logo" xlink:href="#path-1" fill="#3C965A"></use>
            <path d="M34,50 L79,4" id="Line" stroke="#3C965A" stroke-width="3" stroke-linecap="square"></path>
            <path d="M215.472868,54 L80.5271318,7" id="Line" stroke="#3C965A" stroke-width="3" stroke-linecap="square"></path>
            <path d="M211.498121,70 C209.566162,70 208,71.5709366 208,73.5 L208,73.5 C208,75.4329966 209.564549,77 211.498121,77 L226.501879,77 C228.433838,77 230,75.4290634 230,73.5 L230,73.5 C230,71.5670034 228.435451,70 226.501879,70 L211.498121,70 Z M211.498121,70" id="Rectangle 7" fill="#3C965A"></path>
            <path d="M10.9927864,55 C10.4444856,55 10,55.4532303 10,55.9968754 L10,92.0031246 C10,92.5536837 10.4523621,93 10.9927864,93 L41.0072136,93 C41.5555144,93 42,92.5467697 42,92.0031246 L42,55.9968754 C42,55.4463163 41.5476379,55 41.0072136,55 L10.9927864,55 Z M10.9927864,55" id="Rectangle 6" fill="#3C965A"></path>
            <path d="M219,73 L219,163" id="Line" stroke="#3C965A" stroke-width="2" stroke-linecap="square"></path>
        </g>
    </g>
</svg>