<?xml version="1.0" encoding="UTF-8" standalone="no"?>
<svg width="1302px" height="1302px" viewBox="0 0 1302 1302" version="1.1" xmlns="http://www.w3.org/2000/svg" xmlns:xlink="http://www.w3.org/1999/xlink" xmlns:sketch="http://www.bohemiancoding.com/sketch/ns">
    <title>Slice 1</title>
    <description>Created with Sketch (http://www.bohemiancoding.com/sketch)</description>
    <defs></defs>
    <g id="Page 1" stroke="none" stroke-width="1" fill="none" fill-rule="evenodd">
        <path d="M651,1301 C1009.98511,1301 1301,1009.98511 1301,651 C1301,292.014895 1009.98511,1 651,1 C292.014895,1 1,292.014895 1,651 C1,1009.98511 292.014895,1301 651,1301 Z M651,1301" id="Oval 3" stroke="#979797" fill="#373633"></path>
        <g id="iMac" transform="translate(174.000000, 316.000000)">
            <path d="M567.828194,646 L578.679674,723.059837 C579.141653,726.340499 576.829901,729 573.518582,729 L380.481454,729 C377.169082,729 374.857635,726.345808 375.320362,723.059837 L386.171842,646 Z M567.828194,646" id="base" fill="#28BDF4"></path>
            <path d="M578.710454,725 C577.887948,727.331964 575.666204,729 573.054476,729 L380.996346,729 C378.391185,729 376.166363,727.330336 375.341699,725 Z M578.710454,725" id="Rectangle 14" fill="#28BDF4"></path>
            <path d="M386.973389,640 L385.366455,652 L568.66333,652 L566.912598,640 L386.973389,640 Z M386.973389,640" id="shadow" opacity="0.11" fill="#373633"></path>
            <g id="upper" transform="translate(12.000000, 1.000000)">
                <path d="M19.9998697,0 C8.95424668,0 0,8.95190811 0,19.9925395 L0,560 L940,560 L940,19.9925395 C940,8.95096482 931.053918,0 920.00013,0 L19.9998697,0 Z M19.9998697,0" id="bezel" fill="#28BDF4"></path>
                <path d="M37,36 L37,524 L903,524 L903,36 L37,36 Z M37,36" id="panel" fill="#373633"></path>
                <path d="M0,560 L0,624.990702 C0,636.041532 8.94608221,645 19.9998697,645 L920.00013,645 C931.045753,645 940,636.044147 940,624.990702 L940,560 L0,560 Z M0,560" id="frame bottom" fill="#F5EBE5"></path>
            </g>
            <path d="M474.468302,591.694192 C475.693047,591.694192 477.170684,591.948243 478.901561,592.456696 C480.64846,592.965498 481.807719,593.21955 482.379337,593.21955 C483.113975,593.21955 484.314337,592.932605 485.979727,592.358365 C487.645116,591.784475 489.090358,591.49718 490.314755,591.49718 C492.323255,591.49718 494.111258,592.038526 495.678766,593.121218 C496.560401,593.744449 497.434025,594.589187 498.299289,595.655433 C496.993033,596.771019 496.037899,597.763429 495.433886,598.632662 C494.339766,600.20736 493.79288,601.946177 493.79288,603.848762 C493.79288,605.931913 494.372509,607.810003 495.531768,609.483382 C496.691027,611.156412 498.013655,612.214259 499.5,612.657274 C498.878919,614.674987 497.850286,616.784383 496.413404,618.981962 C494.241884,622.27833 492.086387,623.926514 489.94761,623.926514 C489.09837,623.926514 487.922739,623.657066 486.420719,623.11467 C484.934722,622.572274 483.677581,622.302825 482.648948,622.302825 C481.619967,622.302825 480.419953,622.582772 479.048558,623.139165 C477.693187,623.713055 476.591055,624 475.741814,624 C473.178417,624 470.663787,621.819918 468.198272,617.456254 C465.732757,613.141231 464.5,608.909142 464.5,604.759288 C464.499997,600.904427 465.438867,597.763429 467.316602,595.335594 C469.210534,592.907759 471.594503,591.694192 474.468267,591.694192 M489.89846,582 C489.963599,582.21327 490.004703,582.401933 490.021074,582.565912 C490.037098,582.729995 490.045458,582.894009 490.045458,583.058022 C490.045458,584.107856 489.800578,585.255951 489.310819,586.502762 C488.820712,587.749223 488.045318,588.905751 486.983942,589.971997 C486.069562,590.874124 485.163195,591.480908 484.265187,591.792698 C483.693918,591.973263 482.828306,592.112537 481.669047,592.210868 C481.70179,589.717596 482.346558,587.560609 483.604048,585.739908 C484.87756,583.919207 486.975582,582.672571 489.89846,582.000175" id="branding" fill="#373633"></path>
            <g id="camera" transform="translate(473.000000, 18.000000)">
                <path d="M4,8 C6.20913911,8 8,6.20913911 8,4 C8,1.79086089 6.20913911,0 4,0 C1.79086089,0 0,1.79086089 0,4 C0,6.20913911 1.79086089,8 4,8 Z M4,8" id="lens" fill="#373633"></path>
                <path d="M4,6 C5.10456955,6 6,5.10456955 6,4 C6,2.89543045 5.10456955,2 4,2 C2.89543045,2 2,2.89543045 2,4 C2,5.10456955 2.89543045,6 4,6 Z M4,6" id="aperture" fill="#F5EBE5"></path>
            </g>
        </g>
    </g>
</svg>