<?xml version="1.0" encoding="UTF-8" standalone="no"?>
<svg width="940px" height="728px" viewBox="0 0 940 728" version="1.1" xmlns="http://www.w3.org/2000/svg" xmlns:xlink="http://www.w3.org/1999/xlink" xmlns:sketch="http://www.bohemiancoding.com/sketch/ns">
    <title>Macsublime</title>
    <description>Created with Sketch (http://www.bohemiancoding.com/sketch)</description>
    <defs>
        <linearGradient x1="50%" y1="88.7514962%" x2="50%" y2="99.1755157%" id="linearGradient-1">
            <stop stop-color="#BDBBBB" offset="0%"></stop>
            <stop stop-color="#D6D6D6" offset="30.1105806%"></stop>
            <stop stop-color="#E8E7E7" offset="48.21397%"></stop>
            <stop stop-color="#D5D3D3" offset="64.5609487%"></stop>
            <stop stop-color="#C9C7C7" offset="100%"></stop>
        </linearGradient>
        <linearGradient x1="50%" y1="0%" x2="50%" y2="100%" id="linearGradient-2">
            <stop stop-color="#191919" offset="0%"></stop>
            <stop stop-color="#070707" offset="100%"></stop>
        </linearGradient>
        <linearGradient x1="50%" y1="0%" x2="50%" y2="100%" id="linearGradient-3">
            <stop stop-color="#D8D8D8" offset="0%"></stop>
            <stop stop-color="#D6D6D6" offset="100%"></stop>
        </linearGradient>
        <linearGradient x1="50%" y1="0%" x2="50%" y2="100%" id="linearGradient-4">
            <stop stop-color="#FFFFFF" offset="0%"></stop>
            <stop stop-color="#000000" offset="100%"></stop>
        </linearGradient>
        <linearGradient x1="68.0830144%" y1="28.6496167%" x2="95.9234891%" y2="37.0807354%" id="linearGradient-5" stop-color="#FFFFFF">
            <stop stop-opacity="0.05" offset="0%"></stop>
            <stop stop-opacity="0" offset="100%"></stop>
        </linearGradient>
        <path d="M492.554996,0.376971163 L920.994478,0.376971163 C931.49919,0.376971163 940,8.88390705 940,19.3777443 L940.000006,560.001239 L591.231853,560.001239 Z M492.554996,0.376971163" id="path-6"></path>
    </defs>
    <g id="Page 1" stroke="none" stroke-width="1" fill="none" fill-rule="evenodd">
        <g id="iMac" transform="translate(-12.000000, -1.000000)">
            <path d="M567.828194,646 L578.679674,723.059837 C579.141653,726.340499 576.829901,729 573.518582,729 L380.481454,729 C377.169082,729 374.857635,726.345808 375.320362,723.059837 L386.171842,646 Z M567.828194,646" id="base" fill="url(#linearGradient-1)"></path>
            <path d="M578.710454,725 C577.887948,727.331964 575.666204,729 573.054476,729 L380.996346,729 C378.391185,729 376.166363,727.330336 375.341699,725 Z M578.710454,725" id="Rectangle 14" fill="#F0EFEF"></path>
            <path d="M386.973389,640 L385.366455,652 L568.66333,652 L566.912598,640 L386.973389,640 Z M386.973389,640" id="shadow" opacity="0.11" fill="#000000"></path>
            <g id="upper" transform="translate(12.000000, 1.000000)">
                <path d="M19.9998697,0 C8.95424668,0 0,8.95190811 0,19.9925395 L0,560 L940,560 L940,19.9925395 C940,8.95096482 931.053918,0 920.00013,0 L19.9998697,0 Z M19.9998697,0" id="bezel" fill="url(#linearGradient-2)"></path>
                <path d="M37,36 L37,524 L903,524 L903,36 L37,36 Z M37,36" id="panel" fill="#2A2A2A"></path>
                <path d="M0,560 L0,624.990702 C0,636.041532 8.94608221,645 19.9998697,645 L920.00013,645 C931.045753,645 940,636.044147 940,624.990702 L940,560 L0,560 Z M0,560" id="frame bottom" fill="url(#linearGradient-3)"></path>
            </g>
            <path d="M474.468302,591.694192 C475.693047,591.694192 477.170684,591.948243 478.901561,592.456696 C480.64846,592.965498 481.807719,593.21955 482.379337,593.21955 C483.113975,593.21955 484.314337,592.932605 485.979727,592.358365 C487.645116,591.784475 489.090358,591.49718 490.314755,591.49718 C492.323255,591.49718 494.111258,592.038526 495.678766,593.121218 C496.560401,593.744449 497.434025,594.589187 498.299289,595.655433 C496.993033,596.771019 496.037899,597.763429 495.433886,598.632662 C494.339766,600.20736 493.79288,601.946177 493.79288,603.848762 C493.79288,605.931913 494.372509,607.810003 495.531768,609.483382 C496.691027,611.156412 498.013655,612.214259 499.5,612.657274 C498.878919,614.674987 497.850286,616.784383 496.413404,618.981962 C494.241884,622.27833 492.086387,623.926514 489.94761,623.926514 C489.09837,623.926514 487.922739,623.657066 486.420719,623.11467 C484.934722,622.572274 483.677581,622.302825 482.648948,622.302825 C481.619967,622.302825 480.419953,622.582772 479.048558,623.139165 C477.693187,623.713055 476.591055,624 475.741814,624 C473.178417,624 470.663787,621.819918 468.198272,617.456254 C465.732757,613.141231 464.5,608.909142 464.5,604.759288 C464.499997,600.904427 465.438867,597.763429 467.316602,595.335594 C469.210534,592.907759 471.594503,591.694192 474.468267,591.694192 M489.89846,582 C489.963599,582.21327 490.004703,582.401933 490.021074,582.565912 C490.037098,582.729995 490.045458,582.894009 490.045458,583.058022 C490.045458,584.107856 489.800578,585.255951 489.310819,586.502762 C488.820712,587.749223 488.045318,588.905751 486.983942,589.971997 C486.069562,590.874124 485.163195,591.480908 484.265187,591.792698 C483.693918,591.973263 482.828306,592.112537 481.669047,592.210868 C481.70179,589.717596 482.346558,587.560609 483.604048,585.739908 C484.87756,583.919207 486.975582,582.672571 489.89846,582.000175" id="branding" fill="#000000"></path>
            <g id="camera" transform="translate(473.000000, 18.000000)">
                <path d="M4,8 C6.20913911,8 8,6.20913911 8,4 C8,1.79086089 6.20913911,0 4,0 C1.79086089,0 0,1.79086089 0,4 C0,6.20913911 1.79086089,8 4,8 Z M4,8" id="lens" fill="#141414"></path>
                <path d="M4,6 C5.10456955,6 6,5.10456955 6,4 C6,2.89543045 5.10456955,2 4,2 C2.89543045,2 2,2.89543045 2,4 C2,5.10456955 2.89543045,6 4,6 Z M4,6" id="aperture" fill-opacity="0.695714614" fill="#190E37"></path>
            </g>
        </g>
        <g id="screen" transform="translate(37.000000, 36.000000)">
            <g id="Top bar" transform="translate(1.000000, 0.000000)">
                <path d="M0,0 L0,14 L865,14 L865,0 L0,0 Z M0,0" id="Rectangle 8" fill="#B6BFC3"></path>
                <path d="M15.9546252,3.4544204 C16.3278811,3.4544204 16.7782085,3.53184556 17.3057137,3.68680253 C17.8381022,3.84186614 18.1914001,3.9192913 18.3656074,3.9192913 C18.5894972,3.9192913 18.9553219,3.8318414 19.4628692,3.65683494 C19.9704164,3.48193513 20.410871,3.39437858 20.7840207,3.39437858 C21.3961348,3.39437858 21.9410501,3.55936029 22.4187666,3.88932371 C22.6874556,4.07926064 22.953703,4.33670463 23.2174025,4.66165568 C22.8193054,5.00164385 22.5282168,5.30409255 22.3441367,5.56900177 C22.0106906,6.04890979 21.8440206,6.57883489 21.8440206,7.15867042 C21.8440206,7.79353541 22.0206695,8.3659057 22.3739674,8.87588795 C22.7272653,9.38576356 23.1303519,9.7081551 23.5833333,9.84316923 C23.3940514,10.4580914 23.0805632,11.1009548 22.6426564,11.7706931 C21.9808598,12.7753006 21.3239465,13.2776043 20.6721289,13.2776043 C20.4133127,13.2776043 20.0550253,13.1954867 19.5972667,13.030185 C19.1443915,12.8648834 18.7612628,12.7827658 18.4477746,12.7827658 C18.1341803,12.7827658 17.7684618,12.8680828 17.3505129,13.0376503 C16.9374473,13.2125501 16.6015595,13.3 16.3427434,13.3 C15.5615176,13.3 14.7951542,12.635594 14.0437592,11.3057156 C13.2923642,9.99066096 12.9166667,8.7008815 12.9166667,7.4361639 C12.9166656,6.26134907 13.2027976,5.30409255 13.7750595,4.56418103 C14.3522579,3.82426952 15.078801,3.4544204 15.9546146,3.4544204 M20.6571498,0.5 C20.6770016,0.564996609 20.6895284,0.622493855 20.6945179,0.672468277 C20.6994012,0.722474692 20.701949,0.772459779 20.701949,0.822444865 C20.701949,1.14239421 20.6273191,1.49228981 20.4780592,1.87227031 C20.3286932,2.25214417 20.0923827,2.60460995 19.7689156,2.929561 C19.4902476,3.20449497 19.2140213,3.38941953 18.9403428,3.48444132 C18.7662417,3.53947077 18.502436,3.58191597 18.1491381,3.61188356 C18.1591171,2.85202919 18.3556178,2.19466186 18.7388526,1.63978154 C19.1269707,1.08490123 19.7663678,0.704974047 20.6571498,0.500053323" id="branding" fill="#000000"></path>
                <path d="M40.9948438,3 C38.7885525,3 37,4.79535615 37,7 L37,7 C37,9.209139 38.7818508,11 40.9948438,11 L71.0051562,11 C73.2114475,11 75,9.20464385 75,7 L75,7 C75,4.790861 73.2181492,3 71.0051562,3 L40.9948438,3 Z M40.9948438,3" id="Rectangle 9" fill="#515556"></path>
                <path d="M82.0042577,3 C79.7927672,3 78,4.79535615 78,7 L78,7 C78,9.209139 79.7890275,11 82.0042577,11 L105.995742,11 C108.207233,11 110,9.20464385 110,7 L110,7 C110,4.790861 108.210972,3 105.995742,3 L82.0042577,3 Z M82.0042577,3" id="Rectangle 9" fill="#515556"></path>
                <path d="M123.99923,3 C121.790516,3 120,4.79535615 120,7 L120,7 C120,9.209139 121.792468,11 123.99923,11 L136.00077,11 C138.209484,11 140,9.20464385 140,7 L140,7 C140,4.790861 138.207532,3 136.00077,3 L123.99923,3 Z M123.99923,3" id="Rectangle 9" fill="#7A8084"></path>
                <path d="M152.99923,3 C150.790516,3 149,4.79535615 149,7 L149,7 C149,9.209139 150.792468,11 152.99923,11 L165.00077,11 C167.209484,11 169,9.20464385 169,7 L169,7 C169,4.790861 167.207532,3 165.00077,3 L152.99923,3 Z M152.99923,3" id="Rectangle 9" fill="#7A8084"></path>
                <path d="M183.008111,3 C180.794492,3 179,4.79535615 179,7 L179,7 C179,9.209139 180.791252,11 183.008111,11 L216.991889,11 C219.205508,11 221,9.20464385 221,7 L221,7 C221,4.790861 219.208748,3 216.991889,3 L183.008111,3 Z M183.008111,3" id="Rectangle 9" fill="#7A8084"></path>
                <path d="M236.99923,3 C234.790516,3 233,4.79535615 233,7 L233,7 C233,9.209139 234.792468,11 236.99923,11 L249.00077,11 C251.209484,11 253,9.20464385 253,7 L253,7 C253,4.790861 251.207532,3 249.00077,3 L236.99923,3 Z M236.99923,3" id="Rectangle 9" fill="#7A8084"></path>
                <path d="M270.425744,3 C268.211592,3 266.416667,4.79535615 266.416667,7 L266.416667,7 C266.416667,9.209139 268.201284,11 270.425744,11 L283.990923,11 C286.205075,11 288,9.20464385 288,7 L288,7 C288,4.790861 286.215383,3 283.990923,3 L270.425744,3 Z M270.425744,3" id="Rectangle 9" fill="#7A8084"></path>
                <path d="M304.009077,3 C301.794925,3 300,4.79535615 300,7 L300,7 C300,9.209139 301.784617,11 304.009077,11 L317.574256,11 C319.788408,11 321.583333,9.20464385 321.583333,7 L321.583333,7 C321.583333,4.790861 319.798716,3 317.574256,3 L304.009077,3 Z M304.009077,3" id="Rectangle 9" fill="#7A8084"></path>
                <path d="M337.582647,3 C335.373887,3 333.583333,4.79535615 333.583333,7 L333.583333,7 C333.583333,9.209139 335.370584,11 337.582647,11 L355.000686,11 C357.209446,11 359,9.20464385 359,7 L359,7 C359,4.790861 357.212749,3 355.000686,3 L337.582647,3 Z M337.582647,3" id="Rectangle 9" fill="#7A8084"></path>
                <path d="M630.997,3 C628.789518,3 627,4.79535615 627,7 L627,7 C627,9.209139 628.797659,11 630.997,11 L656.003,11 C658.210482,11 660,9.20464385 660,7 L660,7 C660,4.790861 658.202341,3 656.003,3 L630.997,3 Z M630.997,3" id="Rectangle 9 copy" fill="#7A8084"></path>
                <path d="M745.996839,3 C743.789446,3 742,4.79535615 742,7 L742,7 C742,9.209139 743.79412,11 745.996839,11 L766.003161,11 C768.210554,11 770,9.20464385 770,7 L770,7 C770,4.790861 768.20588,3 766.003161,3 L745.996839,3 Z M745.996839,3" id="Rectangle 9 copy" fill="#7A8084"></path>
                <path d="M778.001879,3 C775.791702,3 774,4.79535615 774,7 L774,7 C774,9.209139 775.792195,11 778.001879,11 L798.998121,11 C801.208298,11 803,9.20464385 803,7 L803,7 C803,4.790861 801.207805,3 798.998121,3 L778.001879,3 Z M778.001879,3" id="Rectangle 9 copy" fill="#7A8084"></path>
                <path d="M677.008129,3 C674.794501,3 673,4.79535615 673,7 L673,7 C673,9.209139 674.800039,11 677.008129,11 L725.991871,11 C728.205499,11 730,9.20464385 730,7 L730,7 C730,4.790861 728.199961,3 725.991871,3 L677.008129,3 Z M677.008129,3" id="Rectangle 9 copy" fill="#7A8084"></path>
                <g id="Group" transform="translate(583.000000, 3.000000)">
                    <path d="M0.152775055,2.68293542 L0.152775055,5.34407586 L2.33112026,5.34407586 L4.04222388,7.22171831 C4.41685085,7.6328071 4.72054601,7.51686806 4.72054601,6.96145182 L4.72054601,1.03854818 C4.72054601,0.483718182 4.41792359,0.369436751 4.05495773,0.771832619 L2.33112026,2.68293542 L0.152775055,2.68293542 Z M0.152775055,2.68293542" id="Path 5" fill="#7D8487"></path>
                    <path d="M5.75981745,2.85730591 C5.75981745,2.85730591 6.58512849,3.5540242 6.57522643,4.26279607 C6.56549277,4.95951435 5.72054601,5.66828622 5.72054601,5.66828622 M7.21339543,1.11846891 C7.21339543,1.11846891 8.84706573,2.14490523 8.84706576,4.24907413 C8.84706576,6.35324302 7.21339543,7.37967959 7.21339543,7.37967959" id="Path 6" stroke="#979797" stroke-width="0.5"></path>
                </g>
                <g id="Group" transform="translate(603.000000, 2.000000)" stroke="#979797">
                    <path d="M4.14790118,6.71861297 C4.14790118,6.71861297 4.9243803,6.00337112 6.64790112,6.00001148 C8.37142194,5.99665191 9.14790118,6.73210098 9.14790118,6.73210098" id="Path 9"></path>
                    <path d="M2.16162647,4.83073572 C2.16162647,4.83073572 3.42554391,3.4585857 6.64790119,3.5009617 C9.87025846,3.5433377 11.1341759,4.99794052 11.1341759,4.99794052" id="Path 10"></path>
                    <path d="M0.00459144631,2.93682927 C0.00459144631,2.93682927 1.83577714,0.706318637 6.64790104,0.732374375 C11.4600249,0.758430112 13.2912109,3.04008231 13.2912109,3.04008231" id="Path 11"></path>
                    <path d="M6.15258563,8.27012381 C5.87385611,8.27012381 5.64790118,8.50205741 5.64790118,8.77012381 L5.64790118,8.77012381 C5.64790118,9.04626619 5.86193622,9.27012381 6.15258563,9.27012381 L7.14321673,9.27012381 C7.42194626,9.27012381 7.64790118,9.03819022 7.64790118,8.77012381 L7.64790118,8.77012381 C7.64790118,8.49398144 7.43386615,8.27012381 7.14321673,8.27012381 L6.15258563,8.27012381 Z M6.15258563,8.27012381" id="Rectangle 18" fill="#D8D8D8"></path>
                </g>
                <g id="Group" transform="translate(837.000000, 3.000000)" stroke="#979797" fill="#D8D8D8">
                    <path d="M0,0 L0,2 L2,2 L2,0 L0,0 Z M0,0" id="Rectangle 23"></path>
                    <path d="M0,6 L0,8 L2,8 L2,6 L0,6 Z M0,6" id="Rectangle 23"></path>
                    <path d="M4.15277506,0 L4.15277506,2 L15,2 L15,0 L4.15277506,0 Z M4.15277506,0" id="Rectangle 23"></path>
                    <path d="M4.15277506,3 L4.15277506,5 L12,5 L12,3 L4.15277506,3 Z M4.15277506,3" id="Rectangle 23"></path>
                    <path d="M4.15277506,6 L4.15277506,8 L13,8 L13,6 L4.15277506,6 Z M4.15277506,6" id="Rectangle 23"></path>
                    <path d="M0,3 L0,5 L2,5 L2,3 L0,3 Z M0,3" id="Rectangle 23"></path>
                </g>
                <g id="Group" transform="translate(818.000000, 3.000000)" stroke="#7D8487">
                    <path d="M3,6 C4.65685433,6 6,4.65685433 6,3 C6,1.34314567 4.65685433,0 3,0 C1.34314567,0 0,1.34314567 0,3 C0,4.65685433 1.34314567,6 3,6 Z M3,6" id="Oval 3"></path>
                    <path d="M5.5,5.5 L7.5,7.5" id="Line" stroke-linecap="square"></path>
                </g>
            </g>
            <g id="sublime" transform="translate(0.000000, 14.000000)">
                <path d="M0,0 L0,430 L17,430 L17,0 L0,0 Z M0,0" id="Rectangle 36" fill="#0F1E27"></path>
                <path d="M7.99885484,1 C6.89491779,1 6,1.89339733 6,2.99188419 L6,16 L860,16 L860,2.99188419 C860,1.89179693 859.105947,1 858.001145,1 L7.99885484,1 Z M7.99885484,1" id="Rectangle 29" fill="#D6D6D6"></path>
                <path d="M194,16 L194,39 L860,39 L860,16 L194,16 Z M194,16" id="Rectangle 30" fill="#171714"></path>
                <path d="M195.037107,40 C195.037107,40 197.867657,39.5739333 199.493567,37.4320133 C202.321216,33.706965 203.709957,28.6423685 205.597094,25.364717 C205.632967,25.3024113 207.923472,20.8856752 210.586783,20.1986761 C211.07857,20.0718199 301.306699,19.7739188 304.103193,20.1986761 C306.899686,20.6234334 308.575709,24.9297396 308.843915,25.364717 C310.494516,28.0416617 311.062076,31.9742704 312.354444,34.4635932 C314.292072,38.1957973 316.60524,40 316.60524,40 L195.037107,40 Z M195.037107,40" id="Path 12" fill="#262822"></path>
                <path d="M194,39 L194,393 L860,393 L860,39 L194,39 Z M194,39" id="Rectangle 33" fill="#262822"></path>
                <path d="M789,40 L789,392 L795,392 L795,40 L789,40 Z M789,40" id="Rectangle 34" fill="#252622"></path>
                <path d="M296.5,32 C297.880712,32 299,30.8807119 299,29.5 C299,28.1192881 297.880712,27 296.5,27 C295.119288,27 294,28.1192881 294,29.5 C294,30.8807119 295.119288,32 296.5,32 Z M296.5,32" id="Oval 4" fill="#696A66"></path>
                <path d="M216.00742,26 C214.346468,26 213,27.3465171 213,29 L213,29 C213,30.6568542 214.345539,32 216.00742,32 L245.99258,32 C247.653532,32 249,30.6534829 249,29 L249,29 C249,27.3431458 247.654461,26 245.99258,26 L216.00742,26 Z M216.00742,26" id="Rectangle 9" fill="#A9B9BB"></path>
                <path d="M15,12 C17.2091391,12 19,10.2091391 19,8 C19,5.79086089 17.2091391,4 15,4 C12.7908609,4 11,5.79086089 11,8 C11,10.2091391 12.7908609,12 15,12 Z M15,12" id="Oval 5" fill="#FF5E5A"></path>
                <path d="M29,12 C31.2091391,12 33,10.2091391 33,8 C33,5.79086089 31.2091391,4 29,4 C26.7908609,4 25,5.79086089 25,8 C25,10.2091391 26.7908609,12 29,12 Z M29,12" id="Oval 5" fill="#FFEAA7"></path>
                <path d="M43,12 C45.2091391,12 47,10.2091391 47,8 C47,5.79086089 45.2091391,4 43,4 C40.7908609,4 39,5.79086089 39,8 C39,10.2091391 40.7908609,12 43,12 Z M43,12" id="Oval 5" fill="#AEDD91"></path>
                <path d="M390.5026,5 C388.568167,5 387,6.57093664 387,8.5 L387,8.5 C387,10.4329966 388.563594,12 390.5026,12 L472.4974,12 C474.431833,12 476,10.4290634 476,8.5 L476,8.5 C476,6.56700338 474.436406,5 472.4974,5 L390.5026,5 Z M390.5026,5" id="Rectangle 32" fill="#373737"></path>
                <path d="M6,16 L6,393 L194,393 L194,16 L6,16 Z M6,16" id="Rectangle 35" fill="#E6E6E6"></path>
                <path d="M860,0 L860,430 L866,430 L866,0 L860,0 Z M860,0" id="Rectangle 36" fill="#0F1E27"></path>
                <path d="M6,393 L6,427.9976 C6,429.103495 6.89405342,430 7.99885484,430 L858.001145,430 C859.105082,430 860,429.103721 860,427.9976 L860,393 L6,393 Z M6,393" id="Rectangle 109" fill="#595959"></path>
                <path d="M130,396 L130,411 L670,411 L670,396 L130,396 Z M130,396" id="Rectangle 110" fill="#E6E6E6"></path>
                <g id="Side text" transform="translate(6.000000, 20.000000)">
                    <path d="M7.75356259,0 C6.23281196,0 5,1.23430736 5,2.75 L5,2.75 C5,4.26878306 6.23016442,5.5 7.75356259,5.5 L36.2464374,5.5 C37.767188,5.5 39,4.26569264 39,2.75 L39,2.75 C39,1.23121694 37.7698356,0 36.2464374,0 L7.75356259,0 Z M7.75356259,0" id="Rectangle 38" fill="#A18F9A"></path>
                    <path d="M19.7504981,14 C18.2314399,14 17,15.2343074 17,16.75 L17,16.75 C17,18.2687831 18.2289259,19.5 19.7504981,19.5 L30.2495019,19.5 C31.7685601,19.5 33,18.2656926 33,16.75 L33,16.75 C33,15.2312169 31.7710741,14 30.2495019,14 L19.7504981,14 Z M19.7504981,14" id="Rectangle 38" fill="#2A2A2A"></path>
                    <path d="M27.7537811,27 C26.2329098,27 25,28.2343074 25,29.75 L25,29.75 C25,31.2687831 26.2245961,32.5 27.7537811,32.5 L102.246219,32.5 C103.76709,32.5 105,31.2656926 105,29.75 L105,29.75 C105,28.2312169 103.775404,27 102.246219,27 L27.7537811,27 Z M27.7537811,27" id="Rectangle 38" fill="#2A2A2A"></path>
                    <path d="M27.75,69 C26.2312169,69 25,70.2343074 25,71.75 L25,71.75 C25,73.2687831 26.2213364,74.5 27.75,74.5 L86.25,74.5 C87.7687831,74.5 89,73.2656926 89,71.75 L89,71.75 C89,70.2312169 87.7786636,69 86.25,69 L27.75,69 Z M27.75,69" id="Rectangle 38" fill="#2A2A2A"></path>
                    <path d="M35.7557373,82 C34.2337856,82 33,83.2343074 33,84.75 L33,84.75 C33,86.2687831 34.2342344,87.5 35.7557373,87.5 L72.2442627,87.5 C73.7662144,87.5 75,86.2656926 75,84.75 L75,84.75 C75,83.2312169 73.7657656,82 72.2442627,82 L35.7557373,82 Z M35.7557373,82" id="Rectangle 38" fill="#2A2A2A"></path>
                    <path d="M35.7453833,95 C34.22915,95 33,96.2343074 33,97.75 L33,97.75 C33,99.2687831 34.235245,100.5 35.7453833,100.5 L51.2546167,100.5 C52.77085,100.5 54,99.2656926 54,97.75 L54,97.75 C54,96.2312169 52.764755,95 51.2546167,95 L35.7453833,95 Z M35.7453833,95" id="Rectangle 38" fill="#2A2A2A"></path>
                    <path d="M35.7578405,108 C34.2347273,108 33,109.234307 33,110.75 L33,110.75 C33,112.268783 34.2365428,113.5 35.7578405,113.5 L56.2421595,113.5 C57.7652727,113.5 59,112.265693 59,110.75 L59,110.75 C59,109.231217 57.7634572,108 56.2421595,108 L35.7578405,108 Z M35.7578405,108" id="Rectangle 38" fill="#2A2A2A"></path>
                    <path d="M35.7530424,120.5 C34.2325791,120.5 33,121.734307 33,123.25 L33,123.25 C33,124.768783 34.2390132,126 35.7530424,126 L42.2469576,126 C43.7674209,126 45,124.765693 45,123.25 L45,123.25 C45,121.731217 43.7609868,120.5 42.2469576,120.5 L35.7530424,120.5 Z M35.7530424,120.5" id="Rectangle 38" fill="#2A2A2A"></path>
                    <path d="M35.7569656,133.5 C34.2343356,133.5 33,134.734307 33,136.25 L33,136.25 C33,137.768783 34.2230084,139 35.7569656,139 L43.2430344,139 C44.7656644,139 46,137.765693 46,136.25 L46,136.25 C46,134.731217 44.7769916,133.5 43.2430344,133.5 L35.7569656,133.5 Z M35.7569656,133.5" id="Rectangle 38" fill="#2A2A2A"></path>
                    <path d="M35.7530897,176 C34.2326002,176 33,177.234307 33,178.75 L33,178.75 C33,180.268783 34.2347596,181.5 35.7530897,181.5 L78.2469103,181.5 C79.7673998,181.5 81,180.265693 81,178.75 L81,178.75 C81,177.231217 79.7652404,176 78.2469103,176 L35.7530897,176 Z M35.7530897,176" id="Rectangle 38" fill="#2A2A2A"></path>
                    <path d="M35.7507855,189.5 C34.2315686,189.5 33,190.734307 33,192.25 L33,192.25 C33,193.768783 34.2310562,195 35.7507855,195 L67.2492145,195 C68.7684314,195 70,193.765693 70,192.25 L70,192.25 C70,190.731217 68.7689438,189.5 67.2492145,189.5 L35.7507855,189.5 Z M35.7507855,189.5" id="Rectangle 38" fill="#2A2A2A"></path>
                    <path d="M35.7530182,203 C34.2325682,203 33,204.234307 33,205.75 L33,205.75 C33,207.268783 34.2242468,208.5 35.7530182,208.5 L146.246982,208.5 C147.767432,208.5 149,207.265693 149,205.75 L149,205.75 C149,204.231217 147.775753,203 146.246982,203 L35.7530182,203 Z M35.7530182,203" id="Rectangle 38" fill="#2A2A2A"></path>
                    <path d="M35.7499013,216.5 C34.2311727,216.5 33,217.734307 33,219.25 L33,219.25 C33,220.768783 34.238315,222 35.7499013,222 L98.2500987,222 C99.7688273,222 101,220.765693 101,219.25 L101,219.25 C101,217.731217 99.761685,216.5 98.2500987,216.5 L35.7499013,216.5 Z M35.7499013,216.5" id="Rectangle 38" fill="#2A2A2A"></path>
                    <path d="M35.7418292,147 C34.2275588,147 33,148.234307 33,149.75 L33,149.75 C33,151.268783 34.2319651,152.5 35.7418292,152.5 L60.2581708,152.5 C61.7724412,152.5 63,151.265693 63,149.75 L63,149.75 C63,148.231217 61.7680349,147 60.2581708,147 L35.7418292,147 Z M35.7418292,147" id="Rectangle 38" fill="#2A2A2A"></path>
                    <path d="M27.7579477,40.5 C26.2347752,40.5 25,41.7343074 25,43.25 L25,43.25 C25,44.7687831 26.2217194,46 27.7579477,46 L78.2420523,46 C79.7652248,46 81,44.7656926 81,43.25 L81,43.25 C81,41.7312169 79.7782806,40.5 78.2420523,40.5 L27.7579477,40.5 Z M27.7579477,40.5" id="Rectangle 38" fill="#2A2A2A"></path>
                    <path d="M27.7472117,55 C26.2299686,55 25,56.2343074 25,57.75 L25,57.75 C25,59.2687831 26.2269794,60.5 27.7472117,60.5 L67.2527883,60.5 C68.7700314,60.5 70,59.2656926 70,57.75 L70,57.75 C70,56.2312169 68.7730206,55 67.2527883,55 L27.7472117,55 Z M27.7472117,55" id="Rectangle 38" fill="#2A2A2A"></path>
                    <path d="M0,157 L0,170 L188,170 L188,157 L0,157 Z M0,157" id="Rectangle 49" fill="#A6A6A6"></path>
                    <path d="M41.7424043,160.5 C40.2278162,160.5 39,161.734307 39,163.25 L39,163.25 C39,164.768783 40.2316057,166 41.7424043,166 L75.2575957,166 C76.7721838,166 78,164.765693 78,163.25 L78,163.25 C78,161.731217 76.7683943,160.5 75.2575957,160.5 L41.7424043,160.5 Z M41.7424043,160.5" id="Rectangle 38" fill="#F7F7FC"></path>
                    <g id="Group" transform="translate(7.000000, 13.000000)" fill="#868686">
                        <path d="M3.5,1 L7,7 L0,7 L3.5,1 Z M3.5,1" id="Triangle 2" transform="translate(3.500000, 4.000000) rotate(-180.000000) translate(-3.500000, -4.000000) "></path>
                        <path d="M11.5,55 L15,61 L8,61 L11.5,55 Z M11.5,55" id="Triangle 2" transform="translate(11.500000, 58.000000) rotate(-180.000000) translate(-11.500000, -58.000000) "></path>
                        <path d="M11.5,13 L15,19 L8,19 L11.5,13 Z M11.5,13" id="Triangle 2" transform="translate(11.500000, 16.000000) rotate(-270.000000) translate(-11.500000, -16.000000) "></path>
                        <path d="M11.5,27 L15,33 L8,33 L11.5,27 Z M11.5,27" id="Triangle 2" transform="translate(11.500000, 30.000000) rotate(-270.000000) translate(-11.500000, -30.000000) "></path>
                        <path d="M11.5,41 L15,47 L8,47 L11.5,41 Z M11.5,41" id="Triangle 2" transform="translate(11.500000, 44.000000) rotate(-270.000000) translate(-11.500000, -44.000000) "></path>
                        <path d="M19.5,68 L23,74 L16,74 L19.5,68 Z M19.5,68" id="Triangle 2" transform="translate(19.500000, 71.000000) rotate(-270.000000) translate(-19.500000, -71.000000) "></path>
                        <path d="M19.5,81 L23,87 L16,87 L19.5,81 Z M19.5,81" id="Triangle 2" transform="translate(19.500000, 84.000000) rotate(-270.000000) translate(-19.500000, -84.000000) "></path>
                        <path d="M18.5,94 L22,100 L15,100 L18.5,94 Z M18.5,94" id="Triangle 2" transform="translate(18.500000, 97.000000) rotate(-270.000000) translate(-18.500000, -97.000000) "></path>
                        <path d="M19.5,107 L23,113 L16,113 L19.5,107 Z M19.5,107" id="Triangle 2" transform="translate(19.500000, 110.000000) rotate(-270.000000) translate(-19.500000, -110.000000) "></path>
                        <path d="M19.5,120 L23,126 L16,126 L19.5,120 Z M19.5,120" id="Triangle 2" transform="translate(19.500000, 123.000000) rotate(-270.000000) translate(-19.500000, -123.000000) "></path>
                        <path d="M19.5,134.5 L23,140.5 L16,140.5 L19.5,134.5 Z M19.5,134.5" id="Triangle 2" transform="translate(19.500000, 137.500000) rotate(-180.000000) translate(-19.500000, -137.500000) "></path>
                    </g>
                </g>
                <g id="Text" transform="translate(230.000000, 41.000000)">
                    <path d="M27.0001062,61 C25.895478,61 25,61.8867064 25,62.9981014 L25,67.0018986 C25,68.1054196 25.8900584,69 27.0001062,69 L39.9998938,69 C41.104522,69 42,68.1132936 42,67.0018986 L42,62.9981014 C42,61.8945804 41.1099416,61 39.9998938,61 L27.0001062,61 Z M27.0001062,61" id="Rectangle 56" fill="#EBEBE6"></path>
                    <path d="M26.9974922,73 C25.8943077,73 25,73.8867064 25,74.9981014 L25,79.0018986 C25,80.1054196 25.8966603,81 26.9974922,81 L65.0025078,81 C66.1056923,81 67,80.1132936 67,79.0018986 L67,74.9981014 C67,73.8945804 66.1033397,73 65.0025078,73 L26.9974922,73 Z M26.9974922,73" id="Rectangle 56" fill="#FE2770"></path>
                    <path d="M51.991155,111 C50.8914705,111 50,111.886706 50,112.998101 L50,117.001899 C50,118.10542 50.8896739,119 51.991155,119 L70.008845,119 C71.1085295,119 72,118.113294 72,117.001899 L72,112.998101 C72,111.89458 71.1103261,111 70.008845,111 L51.991155,111 Z M51.991155,111" id="Rectangle 56" fill="#FE2770"></path>
                    <path d="M101.991155,123 C100.89147,123 100,123.886706 100,124.998101 L100,129.001899 C100,130.10542 100.889674,131 101.991155,131 L120.008845,131 C121.10853,131 122,130.113294 122,129.001899 L122,124.998101 C122,123.89458 121.110326,123 120.008845,123 L101.991155,123 Z M101.991155,123" id="Rectangle 56" fill="#FE2770"></path>
                    <path d="M149.991155,135 C148.89147,135 148,135.886706 148,136.998101 L148,141.001899 C148,142.10542 148.889674,143 149.991155,143 L168.008845,143 C169.10853,143 170,142.113294 170,141.001899 L170,136.998101 C170,135.89458 169.110326,135 168.008845,135 L149.991155,135 Z M149.991155,135" id="Rectangle 56" fill="#FE2770"></path>
                    <path d="M156.991155,160 C155.89147,160 155,160.886706 155,161.998101 L155,166.001899 C155,167.10542 155.889674,168 156.991155,168 L175.008845,168 C176.10853,168 177,167.113294 177,166.001899 L177,161.998101 C177,160.89458 176.110326,160 175.008845,160 L156.991155,160 Z M156.991155,160" id="Rectangle 56" fill="#FE2770"></path>
                    <path d="M106.991155,172 C105.89147,172 105,172.886706 105,173.998101 L105,178.001899 C105,179.10542 105.889674,180 106.991155,180 L125.008845,180 C126.10853,180 127,179.113294 127,178.001899 L127,173.998101 C127,172.89458 126.110326,172 125.008845,172 L106.991155,172 Z M106.991155,172" id="Rectangle 56" fill="#FE2770"></path>
                    <path d="M102.991155,184 C101.89147,184 101,184.886706 101,185.998101 L101,190.001899 C101,191.10542 101.889674,192 102.991155,192 L121.008845,192 C122.10853,192 123,191.113294 123,190.001899 L123,185.998101 C123,184.89458 122.110326,184 121.008845,184 L102.991155,184 Z M102.991155,184" id="Rectangle 56" fill="#FE2770"></path>
                    <path d="M126.991155,196 C125.89147,196 125,196.886706 125,197.998101 L125,202.001899 C125,203.10542 125.889674,204 126.991155,204 L145.008845,204 C146.10853,204 147,203.113294 147,202.001899 L147,197.998101 C147,196.89458 146.110326,196 145.008845,196 L126.991155,196 Z M126.991155,196" id="Rectangle 56" fill="#FE2770"></path>
                    <path d="M149.991155,209 C148.89147,209 148,209.886706 148,210.998101 L148,215.001899 C148,216.10542 148.889674,217 149.991155,217 L168.008845,217 C169.10853,217 170,216.113294 170,215.001899 L170,210.998101 C170,209.89458 169.110326,209 168.008845,209 L149.991155,209 Z M149.991155,209" id="Rectangle 56" fill="#FE2770"></path>
                    <path d="M176.990795,221 C175.891309,221 175,221.886706 175,222.998101 L175,227.001899 C175,228.10542 175.898212,229 176.990795,229 L193.009205,229 C194.108691,229 195,228.113294 195,227.001899 L195,222.998101 C195,221.89458 194.101788,221 193.009205,221 L176.990795,221 Z M176.990795,221" id="Rectangle 56" fill="#FE2770"></path>
                    <path d="M542.990795,221 C541.891309,221 541,221.886706 541,222.998101 L541,227.001899 C541,228.10542 541.898212,229 542.990795,229 L559.009205,229 C560.108691,229 561,228.113294 561,227.001899 L561,222.998101 C561,221.89458 560.101788,221 559.009205,221 L542.990795,221 Z M542.990795,221" id="Rectangle 56" fill="#FE2770"></path>
                    <path d="M493.990795,270 C492.891309,270 492,270.886706 492,271.998101 L492,276.001899 C492,277.10542 492.898212,278 493.990795,278 L510.009205,278 C511.108691,278 512,277.113294 512,276.001899 L512,271.998101 C512,270.89458 511.101788,270 510.009205,270 L493.990795,270 Z M493.990795,270" id="Rectangle 56" fill="#FE2770"></path>
                    <path d="M426.990795,257 C425.891309,257 425,257.886706 425,258.998101 L425,263.001899 C425,264.10542 425.898212,265 426.990795,265 L443.009205,265 C444.108691,265 445,264.113294 445,263.001899 L445,258.998101 C445,257.89458 444.101788,257 443.009205,257 L426.990795,257 Z M426.990795,257" id="Rectangle 56" fill="#FE2770"></path>
                    <path d="M151.990795,233 C150.891309,233 150,233.886706 150,234.998101 L150,239.001899 C150,240.10542 150.898212,241 151.990795,241 L168.009205,241 C169.108691,241 170,240.113294 170,239.001899 L170,234.998101 C170,233.89458 169.101788,233 168.009205,233 L151.990795,233 Z M151.990795,233" id="Rectangle 56" fill="#FE2770"></path>
                    <path d="M151.990795,245 C150.891309,245 150,245.886706 150,246.998101 L150,251.001899 C150,252.10542 150.898212,253 151.990795,253 L168.009205,253 C169.108691,253 170,252.113294 170,251.001899 L170,246.998101 C170,245.89458 169.101788,245 168.009205,245 L151.990795,245 Z M151.990795,245" id="Rectangle 56" fill="#FE2770"></path>
                    <path d="M149.990795,306 C148.891309,306 148,306.886706 148,307.998101 L148,312.001899 C148,313.10542 148.898212,314 149.990795,314 L166.009205,314 C167.108691,314 168,313.113294 168,312.001899 L168,307.998101 C168,306.89458 167.101788,306 166.009205,306 L149.990795,306 Z M149.990795,306" id="Rectangle 56" fill="#FE2770"></path>
                    <path d="M305.990795,330 C304.891309,330 304,330.886706 304,331.998101 L304,336.001899 C304,337.10542 304.898212,338 305.990795,338 L322.009205,338 C323.108691,338 324,337.113294 324,336.001899 L324,331.998101 C324,330.89458 323.101788,330 322.009205,330 L305.990795,330 Z M305.990795,330" id="Rectangle 56" fill="#FE2770"></path>
                    <path d="M127.990795,318 C126.891309,318 126,318.886706 126,319.998101 L126,324.001899 C126,325.10542 126.898212,326 127.990795,326 L144.009205,326 C145.108691,326 146,325.113294 146,324.001899 L146,319.998101 C146,318.89458 145.101788,318 144.009205,318 L127.990795,318 Z M127.990795,318" id="Rectangle 56" fill="#FE2770"></path>
                    <path d="M127.990795,330 C126.891309,330 126,330.886706 126,331.998101 L126,336.001899 C126,337.10542 126.898212,338 127.990795,338 L144.009205,338 C145.108691,338 146,337.113294 146,336.001899 L146,331.998101 C146,330.89458 145.101788,330 144.009205,330 L127.990795,330 Z M127.990795,330" id="Rectangle 56" fill="#FE2770"></path>
                    <path d="M106.990795,343 C105.891309,343 105,343.886706 105,344.998101 L105,349.001899 C105,350.10542 105.898212,351 106.990795,351 L123.009205,351 C124.108691,351 125,350.113294 125,349.001899 L125,344.998101 C125,343.89458 124.101788,343 123.009205,343 L106.990795,343 Z M106.990795,343" id="Rectangle 56" fill="#FE2770"></path>
                    <path d="M174.991884,257 C173.891797,257 173,257.886706 173,258.998101 L173,263.001899 C173,264.10542 173.893397,265 174.991884,265 L186.008116,265 C187.108203,265 188,264.113294 188,263.001899 L188,258.998101 C188,257.89458 187.106603,257 186.008116,257 L174.991884,257 Z M174.991884,257" id="Rectangle 56" fill="#FE2770"></path>
                    <path d="M174.991884,283 C173.891797,283 173,283.886706 173,284.998101 L173,289.001899 C173,290.10542 173.893397,291 174.991884,291 L186.008116,291 C187.108203,291 188,290.113294 188,289.001899 L188,284.998101 C188,283.89458 187.106603,283 186.008116,283 L174.991884,283 Z M174.991884,283" id="Rectangle 56" fill="#FE2770"></path>
                    <path d="M251.991884,283 C250.891797,283 250,283.886706 250,284.998101 L250,289.001899 C250,290.10542 250.893397,291 251.991884,291 L263.008116,291 C264.108203,291 265,290.113294 265,289.001899 L265,284.998101 C265,283.89458 264.106603,283 263.008116,283 L251.991884,283 Z M251.991884,283" id="Rectangle 56" fill="#FE2770"></path>
                    <path d="M174.991884,270 C173.891797,270 173,270.886706 173,271.998101 L173,276.001899 C173,277.10542 173.893397,278 174.991884,278 L186.008116,278 C187.108203,278 188,277.113294 188,276.001899 L188,271.998101 C188,270.89458 187.106603,270 186.008116,270 L174.991884,270 Z M174.991884,270" id="Rectangle 56" fill="#FE2770"></path>
                    <path d="M173.000106,147 C171.895478,147 171,147.886706 171,148.998101 L171,153.001899 C171,154.10542 171.890058,155 173.000106,155 L185.999894,155 C187.104522,155 188,154.113294 188,153.001899 L188,148.998101 C188,147.89458 187.109942,147 185.999894,147 L173.000106,147 Z M173.000106,147" id="Rectangle 56" fill="#FE2770"></path>
                    <path d="M414.000106,148 C412.895478,148 412,148.886706 412,149.998101 L412,154.001899 C412,155.10542 412.890058,156 414.000106,156 L426.999894,156 C428.104522,156 429,155.113294 429,154.001899 L429,149.998101 C429,148.89458 428.109942,148 426.999894,148 L414.000106,148 Z M414.000106,148" id="Rectangle 56" fill="#FE2770"></path>
                    <path d="M26.9963074,37 C25.8937773,37 25,37.8867064 25,38.9981014 L25,43.0018986 C25,44.1054196 25.8947304,45 26.9963074,45 L83.0036926,45 C84.1062227,45 85,44.1132936 85,43.0018986 L85,38.9981014 C85,37.8945804 84.1052696,37 83.0036926,37 L26.9963074,37 Z M26.9963074,37" id="Rectangle 56" fill="#EBEBE6"></path>
                    <path d="M26.9974922,49 C25.8943077,49 25,49.8867064 25,50.9981014 L25,55.0018986 C25,56.1054196 25.8966603,57 26.9974922,57 L65.0025078,57 C66.1056923,57 67,56.1132936 67,55.0018986 L67,50.9981014 C67,49.8945804 66.1033397,49 65.0025078,49 L26.9974922,49 Z M26.9974922,49" id="Rectangle 56" fill="#FE2770"></path>
                    <path d="M1.99161703,0 C0.891677316,0 0,0.886706352 0,1.99810135 L0,6.00189865 C0,7.10541955 0.89784041,8 1.99161703,8 L28.008383,8 C29.1083227,8 30,7.11329365 30,6.00189865 L30,1.99810135 C30,0.894580447 29.1021596,0 28.008383,0 L1.99161703,0 Z M1.99161703,0" id="Rectangle 56" fill="#EBEBE6"></path>
                    <path d="M26.998668,13 C25.8948341,13 25,13.8867064 25,14.9981014 L25,19.0018986 C25,20.1054196 25.8941241,21 26.998668,21 L88.001332,21 C89.1051659,21 90,20.1132936 90,19.0018986 L90,14.9981014 C90,13.8945804 89.1058759,13 88.001332,13 L26.998668,13 Z M26.998668,13" id="Rectangle 56" fill="#EBEBE6"></path>
                    <path d="M110.998668,13 C109.894834,13 109,13.8867064 109,14.9981014 L109,19.0018986 C109,20.1054196 109.894124,21 110.998668,21 L172.001332,21 C173.105166,21 174,20.1132936 174,19.0018986 L174,14.9981014 C174,13.8945804 173.105876,13 172.001332,13 L110.998668,13 Z M110.998668,13" id="Rectangle 56" fill="#E6DA82"></path>
                    <path d="M104.006309,111 C102.898255,111 102,111.886706 102,112.998101 L102,117.001899 C102,118.10542 102.886196,119 104.006309,119 L154.993691,119 C156.101745,119 157,118.113294 157,117.001899 L157,112.998101 C157,111.89458 156.113804,111 154.993691,111 L104.006309,111 Z M104.006309,111" id="Rectangle 56" fill="#E6DA82"></path>
                    <path d="M80.9918842,111 C79.8917969,111 79,111.886706 79,112.998101 L79,117.001899 C79,118.10542 79.8933973,119 80.9918842,119 L92.0081158,119 C93.1082031,119 94,118.113294 94,117.001899 L94,112.998101 C94,111.89458 93.1066027,111 92.0081158,111 L80.9918842,111 Z M80.9918842,111" id="Rectangle 56" fill="#A3D54F"></path>
                    <path d="M130.993287,123 C129.892425,123 129,123.886706 129,124.998101 L129,129.001899 C129,130.10542 129.899713,131 130.993287,131 L156.006713,131 C157.107575,131 158,130.113294 158,129.001899 L158,124.998101 C158,123.89458 157.100287,123 156.006713,123 L130.993287,123 Z M130.993287,123" id="Rectangle 56" fill="#A3D54F"></path>
                    <path d="M178.993287,135 C177.892425,135 177,135.886706 177,136.998101 L177,141.001899 C177,142.10542 177.899713,143 178.993287,143 L204.006713,143 C205.107575,143 206,142.113294 206,141.001899 L206,136.998101 C206,135.89458 205.100287,135 204.006713,135 L178.993287,135 Z M178.993287,135" id="Rectangle 56" fill="#A3D54F"></path>
                    <path d="M132.993287,184 C131.892425,184 131,184.886706 131,185.998101 L131,190.001899 C131,191.10542 131.899713,192 132.993287,192 L158.006713,192 C159.107575,192 160,191.113294 160,190.001899 L160,185.998101 C160,184.89458 159.100287,184 158.006713,184 L132.993287,184 Z M132.993287,184" id="Rectangle 56" fill="#A3D54F"></path>
                    <path d="M155.993287,196 C154.892425,196 154,196.886706 154,197.998101 L154,202.001899 C154,203.10542 154.899713,204 155.993287,204 L181.006713,204 C182.107575,204 183,203.113294 183,202.001899 L183,197.998101 C183,196.89458 182.100287,196 181.006713,196 L155.993287,196 Z M155.993287,196" id="Rectangle 56" fill="#A3D54F"></path>
                    <path d="M178.993287,245 C177.892425,245 177,245.886706 177,246.998101 L177,251.001899 C177,252.10542 177.899713,253 178.993287,253 L204.006713,253 C205.107575,253 206,252.113294 206,251.001899 L206,246.998101 C206,245.89458 205.100287,245 204.006713,245 L178.993287,245 Z M178.993287,245" id="Rectangle 56" fill="#A3D54F"></path>
                    <path d="M197.993287,257 C196.892425,257 196,257.886706 196,258.998101 L196,263.001899 C196,264.10542 196.899713,265 197.993287,265 L223.006713,265 C224.107575,265 225,264.113294 225,263.001899 L225,258.998101 C225,257.89458 224.100287,257 223.006713,257 L197.993287,257 Z M197.993287,257" id="Rectangle 56" fill="#A3D54F"></path>
                    <path d="M197.993287,270 C196.892425,270 196,270.886706 196,271.998101 L196,276.001899 C196,277.10542 196.899713,278 197.993287,278 L223.006713,278 C224.107575,278 225,277.113294 225,276.001899 L225,271.998101 C225,270.89458 224.100287,270 223.006713,270 L197.993287,270 Z M197.993287,270" id="Rectangle 56" fill="#A3D54F"></path>
                    <path d="M275.993287,270 C274.892425,270 274,270.886706 274,271.998101 L274,276.001899 C274,277.10542 274.899713,278 275.993287,278 L301.006713,278 C302.107575,278 303,277.113294 303,276.001899 L303,271.998101 C303,270.89458 302.100287,270 301.006713,270 L275.993287,270 Z M275.993287,270" id="Rectangle 56" fill="#A3D54F"></path>
                    <path d="M323.993287,245 C322.892425,245 322,245.886706 322,246.998101 L322,251.001899 C322,252.10542 322.899713,253 323.993287,253 L349.006713,253 C350.107575,253 351,252.113294 351,251.001899 L351,246.998101 C351,245.89458 350.100287,245 349.006713,245 L323.993287,245 Z M323.993287,245" id="Rectangle 56" fill="#A3D54F"></path>
                    <path d="M319.993287,209 C318.892425,209 318,209.886706 318,210.998101 L318,215.001899 C318,216.10542 318.899713,217 319.993287,217 L345.006713,217 C346.107575,217 347,216.113294 347,215.001899 L347,210.998101 C347,209.89458 346.100287,209 345.006713,209 L319.993287,209 Z M319.993287,209" id="Rectangle 56" fill="#A3D54F"></path>
                    <path d="M228.993287,196 C227.892425,196 227,196.886706 227,197.998101 L227,202.001899 C227,203.10542 227.899713,204 228.993287,204 L254.006713,204 C255.107575,204 256,203.113294 256,202.001899 L256,197.998101 C256,196.89458 255.100287,196 254.006713,196 L228.993287,196 Z M228.993287,196" id="Rectangle 56" fill="#A3D54F"></path>
                    <path d="M154.993287,330 C153.892425,330 153,330.886706 153,331.998101 L153,336.001899 C153,337.10542 153.899713,338 154.993287,338 L180.006713,338 C181.107575,338 182,337.113294 182,336.001899 L182,331.998101 C182,330.89458 181.100287,330 180.006713,330 L154.993287,330 Z M154.993287,330" id="Rectangle 56" fill="#A3D54F"></path>
                    <path d="M178.991884,209 C177.891797,209 177,209.886706 177,210.998101 L177,215.001899 C177,216.10542 177.893397,217 178.991884,217 L190.008116,217 C191.108203,217 192,216.113294 192,215.001899 L192,210.998101 C192,209.89458 191.106603,209 190.008116,209 L178.991884,209 Z M178.991884,209" id="Rectangle 56" fill="#A3D54F"></path>
                    <path d="M203.991884,221 C202.891797,221 202,221.886706 202,222.998101 L202,227.001899 C202,228.10542 202.893397,229 203.991884,229 L215.008116,229 C216.108203,229 217,228.113294 217,227.001899 L217,222.998101 C217,221.89458 216.106603,221 215.008116,221 L203.991884,221 Z M203.991884,221" id="Rectangle 56" fill="#A3D54F"></path>
                    <path d="M274.993287,135 C273.892425,135 273,135.886706 273,136.998101 L273,141.001899 C273,142.10542 273.899713,143 274.993287,143 L300.006713,143 C301.107575,143 302,142.113294 302,141.001899 L302,136.998101 C302,135.89458 301.100287,135 300.006713,135 L274.993287,135 Z M274.993287,135" id="Rectangle 56" fill="#A3D54F"></path>
                    <path d="M170.006309,123 C168.898255,123 168,123.886706 168,124.998101 L168,129.001899 C168,130.10542 168.886196,131 170.006309,131 L220.993691,131 C222.101745,131 223,130.113294 223,129.001899 L223,124.998101 C223,123.89458 222.113804,123 220.993691,123 L170.006309,123 Z M170.006309,123" id="Rectangle 56" fill="#E6DA82"></path>
                    <path d="M216.99926,135 C215.895099,135 215,135.886706 215,136.998101 L215,141.001899 C215,142.10542 215.895992,143 216.99926,143 L264.00074,143 C265.104901,143 266,142.113294 266,141.001899 L266,136.998101 C266,135.89458 265.104008,135 264.00074,135 L216.99926,135 Z M216.99926,135" id="Rectangle 56" fill="#E6DA82"></path>
                    <path d="M308.99926,135 C307.895099,135 307,135.886706 307,136.998101 L307,141.001899 C307,142.10542 307.895992,143 308.99926,143 L356.00074,143 C357.104901,143 358,142.113294 358,141.001899 L358,136.998101 C358,135.89458 357.104008,135 356.00074,135 L308.99926,135 Z M308.99926,135" id="Rectangle 56" fill="#E6DA82"></path>
                    <path d="M255.006309,123 C253.898255,123 253,123.886706 253,124.998101 L253,129.001899 C253,130.10542 253.886196,131 255.006309,131 L305.993691,131 C307.101745,131 308,130.113294 308,129.001899 L308,124.998101 C308,123.89458 307.113804,123 305.993691,123 L255.006309,123 Z M255.006309,123" id="Rectangle 56" fill="#E6DA82"></path>
                    <path d="M171.991753,184 C170.891738,184 170,184.886706 170,185.998101 L170,190.001899 C170,191.10542 170.897309,192 171.991753,192 L270.008247,192 C271.108262,192 272,191.113294 272,190.001899 L272,185.998101 C272,184.89458 271.102691,184 270.008247,184 L171.991753,184 Z M171.991753,184" id="Rectangle 56" fill="#E6DA82"></path>
                    <path d="M202.991753,209 C201.891738,209 201,209.886706 201,210.998101 L201,215.001899 C201,216.10542 201.897309,217 202.991753,217 L301.008247,217 C302.108262,217 303,216.113294 303,215.001899 L303,210.998101 C303,209.89458 302.102691,209 301.008247,209 L202.991753,209 Z M202.991753,209" id="Rectangle 56" fill="#E6DA82"></path>
                    <path d="M221.00714,245 C219.898627,245 219,245.886706 219,246.998101 L219,251.001899 C219,252.10542 219.890631,253 221.00714,253 L309.99286,253 C311.101373,253 312,252.113294 312,251.001899 L312,246.998101 C312,245.89458 311.109369,245 309.99286,245 L221.00714,245 Z M221.00714,245" id="Rectangle 56" fill="#E6DA82"></path>
                    <path d="M238.005965,257 C236.898101,257 236,257.886706 236,258.998101 L236,263.001899 C236,264.10542 236.890762,265 238.005965,265 L323.994035,265 C325.101899,265 326,264.113294 326,263.001899 L326,258.998101 C326,257.89458 325.109238,257 323.994035,257 L238.005965,257 Z M238.005965,257" id="Rectangle 56" fill="#E6DA82"></path>
                    <path d="M237.991617,270 C236.891677,270 236,270.886706 236,271.998101 L236,276.001899 C236,277.10542 236.89784,278 237.991617,278 L264.008383,278 C265.108323,278 266,277.113294 266,276.001899 L266,271.998101 C266,270.89458 265.10216,270 264.008383,270 L237.991617,270 Z M237.991617,270" id="Rectangle 56" fill="#E6DA82"></path>
                    <path d="M174.991884,296 C173.891797,296 173,296.886706 173,297.998101 L173,302.001899 C173,303.10542 173.893397,304 174.991884,304 L186.008116,304 C187.108203,304 188,303.113294 188,302.001899 L188,297.998101 C188,296.89458 187.106603,296 186.008116,296 L174.991884,296 Z M174.991884,296" id="Rectangle 56" fill="#FE2770"></path>
                    <path d="M197.993287,296 C196.892425,296 196,296.886706 196,297.998101 L196,302.001899 C196,303.10542 196.899713,304 197.993287,304 L223.006713,304 C224.107575,304 225,303.113294 225,302.001899 L225,297.998101 C225,296.89458 224.100287,296 223.006713,296 L197.993287,296 Z M197.993287,296" id="Rectangle 56" fill="#A3D54F"></path>
                    <path d="M237.991617,296 C236.891677,296 236,296.886706 236,297.998101 L236,302.001899 C236,303.10542 236.89784,304 237.991617,304 L264.008383,304 C265.108323,304 266,303.113294 266,302.001899 L266,297.998101 C266,296.89458 265.10216,296 264.008383,296 L237.991617,296 Z M237.991617,296" id="Rectangle 56" fill="#E6DA82"></path>
                    <path d="M315.991617,270 C314.891677,270 314,270.886706 314,271.998101 L314,276.001899 C314,277.10542 314.89784,278 315.991617,278 L342.008383,278 C343.108323,278 344,277.113294 344,276.001899 L344,271.998101 C344,270.89458 343.10216,270 342.008383,270 L315.991617,270 Z M315.991617,270" id="Rectangle 56" fill="#E6DA82"></path>
                    <path d="M194.00733,196 C192.898712,196 192,196.886706 192,197.998101 L192,202.001899 C192,203.10542 192.898338,204 194.00733,204 L216.99267,204 C218.101288,204 219,203.113294 219,202.001899 L219,197.998101 C219,196.89458 218.101662,196 216.99267,196 L194.00733,196 Z M194.00733,196" id="Rectangle 56" fill="#E6DA82"></path>
                    <path d="M269.000799,196 C267.895788,196 267,196.886706 267,197.998101 L267,202.001899 C267,203.10542 267.897816,204 269.000799,204 L334.999201,204 C336.104212,204 337,203.113294 337,202.001899 L337,197.998101 C337,196.89458 336.102184,196 334.999201,196 L269.000799,196 Z M269.000799,196" id="Rectangle 56" fill="#E6DA82"></path>
                    <path d="M362.995238,209 C361.893299,209 361,209.886706 361,210.998101 L361,215.001899 C361,216.10542 361.895334,217 362.995238,217 L416.004762,217 C417.106701,217 418,216.113294 418,215.001899 L418,210.998101 C418,209.89458 417.104666,209 416.004762,209 L362.995238,209 Z M362.995238,209" id="Rectangle 56" fill="#E6DA82"></path>
                    <path d="M426.995238,209 C425.893299,209 425,209.886706 425,210.998101 L425,215.001899 C425,216.10542 425.895334,217 426.995238,217 L480.004762,217 C481.106701,217 482,216.113294 482,215.001899 L482,210.998101 C482,209.89458 481.104666,209 480.004762,209 L426.995238,209 Z M426.995238,209" id="Rectangle 56" fill="#E6DA82"></path>
                    <path d="M193.991753,330 C192.891738,330 192,330.886706 192,331.998101 L192,336.001899 C192,337.10542 192.897309,338 193.991753,338 L292.008247,338 C293.108262,338 294,337.113294 294,336.001899 L294,331.998101 C294,330.89458 293.102691,330 292.008247,330 L193.991753,330 Z M193.991753,330" id="Rectangle 56" fill="#E6DA82"></path>
                    <path d="M74.991617,25 C73.8916773,25 73,25.8867064 73,26.9981014 L73,31.0018986 C73,32.1054196 73.8978404,33 74.991617,33 L101.008383,33 C102.108323,33 103,32.1132936 103,31.0018986 L103,26.9981014 C103,25.8945804 102.10216,25 101.008383,25 L74.991617,25 Z M74.991617,25" id="Rectangle 56" fill="#E6DA82"></path>
                    <path d="M107.995238,37 C106.893299,37 106,37.8867064 106,38.9981014 L106,43.0018986 C106,44.1054196 106.895334,45 107.995238,45 L161.004762,45 C162.106701,45 163,44.1132936 163,43.0018986 L163,38.9981014 C163,37.8945804 162.104666,37 161.004762,37 L107.995238,37 Z M107.995238,37" id="Rectangle 56" fill="#E6DA82"></path>
                    <path d="M124.997968,49 C123.894521,49 123,49.8867064 123,50.9981014 L123,55.0018986 C123,56.1054196 123.89211,57 124.997968,57 L245.002032,57 C246.105479,57 247,56.1132936 247,55.0018986 L247,50.9981014 C247,49.8945804 246.10789,49 245.002032,49 L124.997968,49 Z M124.997968,49" id="Rectangle 56" fill="#E6DA82"></path>
                    <path d="M124.994967,73 C123.893177,73 123,73.8867064 123,74.9981014 L123,79.0018986 C123,80.1054196 123.892883,81 124.994967,81 L228.005033,81 C229.106823,81 230,80.1132936 230,79.0018986 L230,74.9981014 C230,73.8945804 229.107117,73 228.005033,73 L124.994967,73 Z M124.994967,73" id="Rectangle 56" fill="#E6DA82"></path>
                    <path d="M114.00714,61 C112.898627,61 112,61.8867064 112,62.9981014 L112,67.0018986 C112,68.1054196 112.890631,69 114.00714,69 L202.99286,69 C204.101373,69 205,68.1132936 205,67.0018986 L205,62.9981014 C205,61.8945804 204.109369,61 202.99286,61 L114.00714,61 Z M114.00714,61" id="Rectangle 56" fill="#E6DA82"></path>
                    <path d="M27.0022853,25 C25.8964537,25 25,25.8867064 25,26.9981014 L25,31.0018986 C25,32.1054196 25.8997849,33 27.0022853,33 L55.9977147,33 C57.1035463,33 58,32.1132936 58,31.0018986 L58,26.9981014 C58,25.8945804 57.1002151,25 55.9977147,25 L27.0022853,25 Z M27.0022853,25" id="Rectangle 56" fill="#EBEBE6"></path>
                    <path d="M76.991617,49 C75.8916773,49 75,49.8867064 75,50.9981014 L75,55.0018986 C75,56.1054196 75.8978404,57 76.991617,57 L103.008383,57 C104.108323,57 105,56.1132936 105,55.0018986 L105,50.9981014 C105,49.8945804 104.10216,49 103.008383,49 L76.991617,49 Z M76.991617,49" id="Rectangle 56" fill="#EBEBE6"></path>
                    <path d="M196.994432,147 C195.892937,147 195,147.886706 195,148.998101 L195,153.001899 C195,154.10542 195.890636,155 196.994432,155 L403.005568,155 C404.107063,155 405,154.113294 405,153.001899 L405,148.998101 C405,147.89458 404.109364,147 403.005568,147 L196.994432,147 Z M196.994432,147" id="Rectangle 56" fill="#EBEBE6"></path>
                    <path d="M225.999937,221 C224.895402,221 224,221.886706 224,222.998101 L224,227.001899 C224,228.10542 224.889282,229 225.999937,229 L532.000063,229 C533.104598,229 534,228.113294 534,227.001899 L534,222.998101 C534,221.89458 533.110718,221 532.000063,221 L225.999937,221 Z M225.999937,221" id="Rectangle 56" fill="#EBEBE6"></path>
                    <path d="M354.000393,270 C352.895606,270 352,270.886706 352,271.998101 L352,276.001899 C352,277.10542 352.892645,278 354.000393,278 L478.999607,278 C480.104394,278 481,277.113294 481,276.001899 L481,271.998101 C481,270.89458 480.107355,270 478.999607,270 L354.000393,270 Z M354.000393,270" id="Rectangle 56" fill="#EBEBE6"></path>
                    <path d="M339.000328,257 C337.895577,257 337,257.886706 337,258.998101 L337,263.001899 C337,264.10542 337.891375,265 339.000328,265 L411.999672,265 C413.104423,265 414,264.113294 414,263.001899 L414,258.998101 C414,257.89458 413.108625,257 411.999672,257 L339.000328,257 Z M339.000328,257" id="Rectangle 56" fill="#EBEBE6"></path>
                    <path d="M199.004923,283 C197.897635,283 197,283.886706 197,284.998101 L197,289.001899 C197,290.10542 197.898855,291 199.004923,291 L238.995077,291 C240.102365,291 241,290.113294 241,289.001899 L241,284.998101 C241,283.89458 240.101145,283 238.995077,283 L199.004923,283 Z M199.004923,283" id="Rectangle 56" fill="#EBEBE6"></path>
                    <path d="M326.991884,296 C325.891797,296 325,296.886706 325,297.998101 L325,302.001899 C325,303.10542 325.893397,304 326.991884,304 L338.008116,304 C339.108203,304 340,303.113294 340,302.001899 L340,297.998101 C340,296.89458 339.106603,296 338.008116,296 L326.991884,296 Z M326.991884,296" id="Rectangle 56" fill="#FE2770"></path>
                    <path d="M274.004923,296 C272.897635,296 272,296.886706 272,297.998101 L272,302.001899 C272,303.10542 272.898855,304 274.004923,304 L313.995077,304 C315.102365,304 316,303.113294 316,302.001899 L316,297.998101 C316,296.89458 315.101145,296 313.995077,296 L274.004923,296 Z M274.004923,296" id="Rectangle 56" fill="#EBEBE6"></path>
                    <path d="M61.991617,61 C60.8916773,61 60,61.8867064 60,62.9981014 L60,67.0018986 C60,68.1054196 60.8978404,69 61.991617,69 L88.008383,69 C89.1083227,69 90,68.1132936 90,67.0018986 L90,62.9981014 C90,61.8945804 89.1021596,61 88.008383,61 L61.991617,61 Z M61.991617,61" id="Rectangle 56" fill="#EBEBE6"></path>
                    <path d="M75.991617,73 C74.8916773,73 74,73.8867064 74,74.9981014 L74,79.0018986 C74,80.1054196 74.8978404,81 75.991617,81 L102.008383,81 C103.108323,81 104,80.1132936 104,79.0018986 L104,74.9981014 C104,73.8945804 103.10216,73 102.008383,73 L75.991617,73 Z M75.991617,73" id="Rectangle 56" fill="#EBEBE6"></path>
                    <path d="M1.99188419,85 C0.891796927,85 0,85.8867064 0,86.9981014 L0,91.0018986 C0,92.1054196 0.893397331,93 1.99188419,93 L13.0081158,93 C14.1082031,93 15,92.1132936 15,91.0018986 L15,86.9981014 C15,85.8945804 14.1066027,85 13.0081158,85 L1.99188419,85 Z M1.99188419,85" id="Rectangle 56" fill="#EBEBE6"></path>
                </g>
            </g>
            <g id="Icons" transform="translate(18.000000, 449.000000)">
                <path d="M0.46799459,35.3858923 C-0.342756435,36.8296241 0.35129261,38 1.99561775,38 L829.004382,38 C830.658816,38 831.363018,36.8261835 830.568968,35.362927 L820.407214,16.637073 C819.616877,15.1806578 817.640703,14 815.975182,14 L15.4785888,14 C13.8211825,14 11.8184135,15.1738165 11.0095946,16.6141077 L0.46799459,35.3858923 Z M0.46799459,35.3858923" id="Rectangle 142" fill="#B9BCBE"></path>
                <path d="M17,5 L17,26 L43,26 L43,5 L17,5 Z M17,5" id="Rectangle 142" fill="#6992D6"></path>
                <path d="M477.434963,5 L477.434963,28 L504.434963,28 L504.434963,5 L477.434963,5 Z M477.434963,5" id="Rectangle 146" stroke="#EEEFEE" stroke-width="2" fill="#202A27"></path>
                <path d="M577.098796,4 L577.098796,27 L604.098796,27 L604.098796,4 L577.098796,4 Z M577.098796,4" id="Rectangle 146" stroke="#EEEFEE" stroke-width="2" fill="#202A27"></path>
                <path d="M514.990752,4 C513.339005,4 512,5.34177063 512,6.99109042 L512,25.0089096 C512,26.6608432 513.344109,28 514.990752,28 L534.009248,28 C535.660995,28 537,26.6582294 537,25.0089096 L537,6.99109042 C537,5.33915679 535.655891,4 534.009248,4 L514.990752,4 Z M514.990752,4" id="Rectangle 147" fill="#FC8D30"></path>
                <path d="M63,30 C70.7319869,30 77,23.7319869 77,16 C77,8.26801312 70.7319869,2 63,2 C55.2680131,2 49,8.26801312 49,16 C49,23.7319869 55.2680131,30 63,30 Z M63,30" id="Oval 8" fill="#1EB5F9"></path>
                <path d="M96,29 C103.179702,29 109,23.1797021 109,16 C109,8.8202979 103.179702,3 96,3 C88.8202979,3 83,8.8202979 83,16 C83,23.1797021 88.8202979,29 96,29 Z M96,29" id="Oval 8" stroke="#F6F6F6" stroke-width="3" fill="#83A4CF"></path>
                <path d="M162,30 C169.731987,30 176,23.7319869 176,16 C176,8.26801312 169.731987,2 162,2 C154.268013,2 148,8.26801312 148,16 C148,23.7319869 154.268013,30 162,30 Z M162,30" id="Oval 8" stroke="#FFFFFF" stroke-width="2" fill="#3D9CDF"></path>
                <path d="M392.312449,31 C400.320578,31 406.812449,24.5081293 406.812449,16.5 C406.812449,8.49187073 400.320578,2 392.312449,2 C384.30432,2 377.812449,8.49187073 377.812449,16.5 C377.812449,24.5081293 384.30432,31 392.312449,31 Z M392.312449,31" id="Oval 8" fill="#AFD344"></path>
                <path d="M459,30 C466.731987,30 473,23.7319869 473,16 C473,8.26801312 466.731987,2 459,2 C451.268013,2 445,8.26801312 445,16 C445,23.7319869 451.268013,30 459,30 Z M459,30" id="Oval 8" fill="#E4958B"></path>
                <path d="M459,22 C462.313709,22 465,19.3137087 465,16 C465,12.6862913 462.313709,10 459,10 C455.686291,10 453,12.6862913 453,16 C453,19.3137087 455.686291,22 459,22 Z M459,22" id="Oval 16" stroke="#FEF9F7" fill="#6AA1D2"></path>
                <path d="M557,30 C564.731987,30 571,23.7319869 571,16 C571,8.26801312 564.731987,2 557,2 C549.268013,2 543,8.26801312 543,16 C543,23.7319869 549.268013,30 557,30 Z M557,30" id="Oval 8" stroke="#E17C29" stroke-width="2" fill="#72D1F1"></path>
                <path d="M113.735945,13.5946362 L123.384911,29.5383657 L131.879714,24.6217379 C131.879714,24.6217379 135.975138,27.9676303 139.970962,25.8909835 C143.966787,23.8143367 142.184454,19.1414802 142.184454,19.1414802 L143.999773,17.6180654 L142.820724,16.0805263 C142.820724,16.0805263 142.886636,14.6867721 142.184454,13.5946358 C141.461756,12.4705904 139.970963,11.6481628 139.970963,11.6481628 L137.227471,1.4691962 L116.665744,4.50459174 L116.665744,11.6481627 L113.735945,13.5946362 Z M113.735945,13.5946362" id="Path 14" stroke="#FCFCF9" fill="#AAC5EA"></path>
                <path d="M180.434963,5.53597387 L183.533613,27.2701343 L210.120431,22.3844927 L205.747872,1.78094541 L180.434963,5.53597387 Z M180.434963,5.53597387" id="Path 15" stroke="#FAF9F9" fill="#EFAD39"></path>
                <path d="M188,17 L188,31 L211,31 L211,17 L188,17 Z M188,17" id="Rectangle 143" fill="#858D9C"></path>
                <path d="M202,28 C204.209139,28 206,26.2091391 206,24 C206,21.7908609 204.209139,20 202,20 C199.790861,20 198,21.7908609 198,24 C198,26.2091391 199.790861,28 202,28 Z M202,28" id="Oval 14" stroke="#F9FBFC" fill="#263E73"></path>
                <path d="M217,5 L217,28 L244,28 L244,5 L217,5 Z M217,5" id="Rectangle 144" stroke="#F4F4F4" stroke-width="2" fill="#ABAAAA"></path>
                <path d="M247.761698,4.85926335 L251.293521,30.889015 L274.098062,27.2710693 L268.943865,1.82663221 L247.761698,4.85926335 Z M247.761698,4.85926335" id="Path 16" fill="#F1EEA0"></path>
                <path d="M293.5,32 C297.089851,32 300,29.5375663 300,26.5 C300,23.4624337 297.089851,21 293.5,21 C289.910149,21 287,23.4624337 287,26.5 C287,29.5375663 289.910149,32 293.5,32 Z M293.5,32" id="Oval 15" fill="#868996"></path>
                <path d="M292,14 L292,24 L295,24 L295,14 L292,14 Z M292,14" id="Rectangle 145" fill="#868996"></path>
                <path d="M281.714625,3.58996299 L280.655481,17.2834508 L306.773573,17.3864542 L305.714802,3.86202646 L281.714625,3.58996299 Z M281.714625,3.58996299" id="Path 17" fill="#C76F2D"></path>
                <path d="M324.681638,3.39332298 C319.17166,3.41100278 319.453853,8.60665704 319.453853,8.60665704 C319.453853,8.60665704 315.567077,10.6278842 314.635604,14.7028251 C313.208183,20.9474043 315.613566,30.1221291 325.278843,29.433401 C334.624386,28.7674562 336.567617,20.430192 334.925512,14.7028251 C333.761105,10.64158 329.80779,8.53744238 329.80779,8.53744238 C329.80779,8.53744238 330.191615,3.37564318 324.681638,3.39332298 Z M324.681638,3.39332298" id="Path 18" stroke="#C7C7C5" fill="#4D4E74"></path>
                <path d="M344.944529,14.4729202 L351.834354,30.9537941 L374.050751,22.1565859 L370.257638,17.1559939 L371.889263,3.55848476 L369.071812,0.408914191 L364.896586,1.89883843 L364.444736,2.23446146 L363.999256,7.83146904 L362.543722,7.08507399 L358.104518,8.57850094 L358.104518,9.61976024 L344.944529,14.4729202 Z M344.944529,14.4729202" id="Path 19" stroke="#FFFFFF" fill="#506E9D"></path>
                <path d="M413.029557,5.24953332 L411.523823,27.5307786 L439.901204,27.9170927 L438.039493,5.13959525 L436.150228,2.75407837 L414.62352,2.877376 L413.029557,5.24953332 Z M413.029557,5.24953332" id="Path 20" stroke="#EFEFEF" fill="#5D5D5D"></path>
                <path d="M627.668242,14.6921996 C627.668242,14.6921996 634.673761,19.6509644 634.34175,22.4286736 C634.056545,24.8147915 629.316742,29.773029 624.502935,30.52645 C622.932059,30.7723117 616.005913,30.1048977 612.588067,26.5919064 C611.543516,25.5182783 610.83367,20.6204692 611.676155,16.8912362 C612.471901,13.3688923 614.795279,10.9751808 614.795279,10.9751808 C614.795279,10.9751808 615.755782,11.2927847 617.109636,12.2034339 C617.953104,12.7707796 619.068476,13.8865445 619.834638,14.3255719 C620.762148,14.8570551 620.642165,14.325572 620.642165,14.325572 L617.109636,9.80943285 C617.109636,9.80943285 615.492203,6.6949945 616.416406,4.51866027 C617.525059,1.90798031 621.311259,0.163074586 622.784466,0.266100528 C624.219416,0.366450981 626.550011,0.889514552 627.887007,2.28286302 C628.655309,3.0835473 629.621348,6.64589012 629.621348,6.64589012 C629.621348,6.64589012 630.149026,7.78163382 630.149026,8.98619163 C630.149026,10.0141607 629.621348,11.1109439 629.621348,11.1109439 L627.887008,12.2034336 L627.668242,14.6921996 Z M627.668242,14.6921996" id="Path 21" fill="#FBE24B"></path>
                <path d="M641.128877,10.4814495 L655.90762,29.2141358 L671.680231,10.4814495 L671.680231,7.59775343 L663.878641,1.97413247 L648.680188,1.97413247 L641.128877,7.59775343 L641.128877,10.4814495 Z M641.128877,10.4814495" id="Path 22" fill="#69819C"></path>
                <path d="M675.457497,5.26439816 L680.064993,28.7796658 L702.195933,24.0634584 L695.582122,0.959533835 L675.457497,5.26439816 Z M675.457497,5.26439816" id="Path 23" fill="#F0F1F5"></path>
                <path d="M756.312193,9.25668689 L756.312193,27.7976403 L786.310409,27.7976406 L786.798145,9.13215388 C786.798145,9.13215388 786.608171,8.60191019 786.310409,8.26539518 C785.941321,7.84827076 785.464444,7.62487503 785.464444,7.62487503 L769.64943,7.37987724 L768.749899,4.94594623 L759.63684,4.94594624 L756.312193,9.25668689 Z M756.312193,9.25668689" id="Path 24" fill="#AAC9DC"></path>
                <path d="M722.312193,9.25668689 L722.312193,27.7976403 L752.310409,27.7976406 L752.798145,9.13215388 C752.798145,9.13215388 752.608171,8.60191019 752.310409,8.26539518 C751.941321,7.84827076 751.464444,7.62487503 751.464444,7.62487503 L735.64943,7.37987724 L734.749899,4.94594623 L725.63684,4.94594624 L722.312193,9.25668689 Z M722.312193,9.25668689" id="Path 24" fill="#AAC9DC"></path>
                <path d="M803.993871,1.02824153 C792.463831,1.02824373 792.065597,5.97498216 792.065597,5.97498216 L794.428334,26.0568906 C794.428334,26.0568906 795.12355,30.4905843 802.868328,31.1405953 C810.613106,31.7906064 813.25881,27.0653593 813.25881,27.0653593 L815.922144,6.25749806 C815.922144,6.25749806 815.52391,1.02823933 803.993871,1.02824153 Z M803.993871,1.02824153" id="Path 26" stroke="#979797" fill="#898989"></path>
            </g>
        </g>
        <use id="glare" opacity="0.202130682" fill="url(#linearGradient-4)" xlink:href="#path-6"></use>
        <use id="glare-1" opacity="0.202130682" fill="url(#linearGradient-5)" xlink:href="#path-6"></use>
    </g>
</svg>