<?xml version="1.0" encoding="UTF-8" standalone="no"?>
<svg width="77px" height="77px" viewBox="0 0 77 77" version="1.1" xmlns="http://www.w3.org/2000/svg" xmlns:xlink="http://www.w3.org/1999/xlink" xmlns:sketch="http://www.bohemiancoding.com/sketch/ns">
    <title>Slice 1</title>
    <description>Created with Sketch (http://www.bohemiancoding.com/sketch)</description>
    <defs>
        <path d="M9.99560235,0 C9.44574635,0 9,0.455278158 9,1.00355521 L9,44.9964448 C9,45.550693 9.45517302,46 10.0004194,46 L43.9995806,46 C44.552097,46 45,45.5504597 45,44.993195 L45,11.4523025 C45,10.8962595 44.6990939,10.1097876 44.3266657,9.69428309 L36.3107454,0.751214421 C35.9388732,0.336330153 35.1972934,0 34.6418088,0 L9.99560235,0 Z M9.99560235,0" id="path-1" stroke="#E05A50" stroke-width="3"></path>
        <mask id="mask-2" fill="white">
            <use xlink:href="#path-1"></use>
        </mask>
    </defs>
    <g id="Page 1" stroke="none" stroke-width="1" fill="none" fill-rule="evenodd">
        <path d="M38.5,77 C59.7629639,77 77,59.7629639 77,38.5 C77,17.2370361 59.7629639,0 38.5,0 C17.2370361,0 0,17.2370361 0,38.5 C0,59.7629639 17.2370361,77 38.5,77 Z M38.5,77" id="Oval 1" fill="#373633"></path>
        <g id="Group" transform="translate(18.000000, 12.000000)">
            <path d="M1.00041944,6 L9,6 L9,44.9964448 C9,45.550693 9.45517302,46 10.0004194,46 L36,46 L36,50.9964448 C36,51.5447218 35.552097,52 34.9995806,52 L1.00041944,52 C0.455173016,52 0,51.550693 0,50.9964448 L0,7.00355521 C0,6.45527816 0.447903039,6 1.00041944,6 Z M1.00041944,6" id="Rectangle 3" stroke="#E05A50" stroke-width="3"></path>
            <use id="Rectangle 1" xlink:href="#path-1"></use>
            <path d="M15.5,16 L39.5,16" id="Line" stroke="#E05A50" stroke-width="1.5" stroke-linecap="square" mask="url(#mask-2)"></path>
            <path d="M15.5,9.5 L29.5,9.5" id="Line" stroke="#E05A50" stroke-width="1.5" stroke-linecap="square" mask="url(#mask-2)"></path>
            <path d="M15.5,22.25 L39.5,22.25" id="Line" stroke="#E05A50" stroke-width="1.5" stroke-linecap="square" mask="url(#mask-2)"></path>
            <path d="M15.5,28.75 L39.5,28.75" id="Line" stroke="#E05A50" stroke-width="1.5" stroke-linecap="square" mask="url(#mask-2)"></path>
            <path d="M15.5,35.25 L19.5,35.25" id="Line" stroke="#E05A50" stroke-width="1.5" stroke-linecap="square" mask="url(#mask-2)"></path>
        </g>
        <path d="M53,12 L53,23 L64,23 L58.5,17.5 L53,12 Z M53,12" id="Rectangle 5" fill="#E05A50"></path>
    </g>
</svg>