<?xml version="1.0" encoding="UTF-8" standalone="no"?>
<svg width="400px" height="400px" viewBox="0 0 400 400" version="1.1" xmlns="http://www.w3.org/2000/svg" xmlns:xlink="http://www.w3.org/1999/xlink" xmlns:sketch="http://www.bohemiancoding.com/sketch/ns">
    <title>Slice 1</title>
    <description>Created with Sketch (http://www.bohemiancoding.com/sketch)</description>
    <defs></defs>
    <g id="Page 1" stroke="none" stroke-width="1" fill="none" fill-rule="evenodd">
        <path d="M200,400 C310.456955,400 400,310.456955 400,200 C400,89.5430446 310.456955,0 200,0 C89.5430446,0 0,89.5430446 0,200 C0,310.456955 89.5430446,400 200,400 Z M200,400" id="Oval 1" fill="#373633"></path>
        <g id="Group" transform="translate(77.000000, 76.000000)">
            <path d="M158,176 C206.60106,176 246,136.60106 246,88 C246,39.3989396 206.60106,0 158,0 C109.39894,0 70,39.3989396 70,88 C70,136.60106 109.39894,176 158,176 Z M158,176" id="Oval 2" stroke="#286EBE" stroke-width="25"></path>
            <path d="M38.0067025,151 C34.6892923,151 32,153.688483 32,156.996853 L32,246.003147 C32,249.315117 34.6847577,252 38.0067025,252 L53.9932975,252 C57.3107077,252 60,249.311517 60,246.003147 L60,156.996853 C60,153.684883 57.3152423,151 53.9932975,151 L38.0067025,151 Z M38.0067025,151" id="Rectangle 1" fill="#286EBE" transform="translate(46.000000, 201.500000) rotate(-315.000000) translate(-46.000000, -201.500000) "></path>
        </g>
    </g>
</svg>